<?xml version="1.0" standalone="no"?>
<!DOCTYPE svg PUBLIC "-//W3C//DTD SVG 20010904//EN"
 "http://www.w3.org/TR/2001/REC-SVG-20010904/DTD/svg10.dtd">
<svg version="1.0" xmlns="http://www.w3.org/2000/svg"
 width="149.000000pt" height="85.000000pt" viewBox="0 0 149.000000 85.000000"
 preserveAspectRatio="xMidYMid meet">

<g transform="translate(0.000000,85.000000) scale(0.100000,-0.100000)"
fill="#000000" stroke="none">
<path fill="#c50000" d="M535 605 l-159 -135 -109 107 -109 108 76 -115 76 -115 -73 -66 c-67
-61 -176 -184 -132 -148 11 8 66 53 123 99 101 81 104 83 121 64 10 -10 76
-82 146 -159 199 -218 199 -221 1 55 l-97 135 83 80 c97 94 223 225 217 225
-3 0 -77 -61 -164 -135z"/>
</g>
</svg>
