<svg xmlns="http://www.w3.org/2000/svg" width="32" height="32">
    <g fill="none" fill-rule="evenodd">
        <path style=" stroke:none;fill-rule:nonzero;fill:rgb(77.254902%,0%,0%);fill-opacity:1;" d="M 20.132812 9.246094 L 14.152344 14.339844 L 10.046875 10.300781 L 5.945312 6.226562 L 8.804688 10.566406 L 11.667969 14.90625 L 8.917969 17.394531 C 6.398438 19.699219 2.296875 24.339844 3.953125 22.980469 C 4.367188 22.679688 6.433594 20.980469 8.582031 19.246094 C 12.382812 16.1875 12.496094 16.113281 13.132812 16.832031 C 13.511719 17.207031 15.996094 19.925781 18.628906 22.832031 C 26.117188 31.054688 26.117188 31.167969 18.667969 20.753906 L 15.015625 15.660156 L 18.140625 12.640625 C 21.789062 9.09375 26.53125 4.152344 26.304688 4.152344 C 26.195312 4.152344 23.410156 6.453125 20.132812 9.246094 Z M 20.132812 9.246094 "/>
    </g>
</svg>